Coordinates
version=1
nRows=17
nColumns=40
inDegrees=yes

Units are S.I. units (second, meters, Newtons, ...)
If the header above contains a line with 'inDegrees', this indicates whether rotational values are in degrees (yes) or radians (no).

endheader
time	pelvis_tilt	pelvis_list	pelvis_rotation	pelvis_tx	pelvis_ty	pelvis_tz	hip_flexion_r	hip_adduction_r	hip_rotation_r	knee_angle_r	knee_angle_r_beta	ankle_angle_r	subtalar_angle_r	mtp_angle_r	hip_flexion_l	hip_adduction_l	hip_rotation_l	knee_angle_l	knee_angle_l_beta	ankle_angle_l	subtalar_angle_l	mtp_angle_l	lumbar_extension	lumbar_bending	lumbar_rotation	arm_flex_r	arm_add_r	arm_rot_r	elbow_flex_r	pro_sup_r	wrist_flex_r	wrist_dev_r	arm_flex_l	arm_add_l	arm_rot_l	elbow_flex_l	pro_sup_l	wrist_flex_l	wrist_dev_l
      1.04000000	      0.46407105	      9.99143610	    -85.47672386	      0.26324290	      0.90676479	      1.01979675	     41.24757916	     -3.54621888	    -10.68902205	     13.74557912	      0.23990561	     -0.97953207	      0.00000000	      0.00000000	    -13.04704324	      1.14750830	      3.59287046	     13.52582635	      0.23607020	     -0.10797024	      0.00000000	      0.00000000	      2.45899344	      0.76298130	     -5.33537066	      0.00000000	      0.00000000	      0.00000000	      0.00000000	      0.00000000	      0.00000000	      0.00000000	      0.00000000	      0.00000000	      0.00000000	      0.00000000	      0.00000000	      0.00000000	      0.00000000
      1.05000000	     -0.29878105	     10.22491317	    -85.40293377	      0.26172488	      0.90634159	      1.04242764	     41.49996945	     -2.92460317	    -11.10140582	     15.83524591	      0.27637718	     -3.44822521	     -0.00000000	      0.00000000	    -12.03695443	      0.05914083	      2.58115411	     16.68229343	      0.29116095	     -3.23713037	      0.00000000	      0.00000000	      2.98119734	      1.66435591	     -5.17179605	      0.00000000	     -0.00000000	      0.00000000	      0.00000000	      0.00000000	      0.00000000	      0.00000000	      0.00000000	     -0.00000000	      0.00000000	      0.00000000	      0.00000000	     -0.00000000	      0.00000000
      1.06000000	     -1.05577141	     10.30503620	    -85.45612251	      0.25997496	      0.90685336	      1.06502070	     41.50734291	     -2.21661995	    -11.36505341	     17.92788487	      0.31290062	     -5.52620152	      0.00000000	      0.00000000	    -10.88595020	     -1.04854500	      1.59995725	     20.16678257	      0.35197676	     -7.05137416	      0.00000000	      0.00000000	      3.30417195	      2.57049670	     -4.85526823	      0.00000000	      0.00000000	      0.00000000	      0.00000000	      0.00000000	      0.00000000	      0.00000000	      0.00000000	      0.00000000	      0.00000000	      0.00000000	      0.00000000	      0.00000000	      0.00000000
      1.07000000	     -1.82204246	     10.25201060	    -85.62114208	      0.25801690	      0.90825188	      1.08751429	     41.25649662	     -1.39844805	    -11.47638237	     19.92984323	      0.34784138	     -6.93336095	      0.00000000	      0.00000000	     -9.57483583	     -2.18342824	      0.69568913	     23.97771850	      0.41849013	    -11.33273137	      0.00000000	      0.00000000	      3.44924955	      3.49161739	     -4.41888262	      0.00000000	      0.00000000	      0.00000000	      0.00000000	      0.00000000	      0.00000000	      0.00000000	      0.00000000	      0.00000000	      0.00000000	      0.00000000	      0.00000000	      0.00000000	      0.00000000
      1.08000000	     -2.60072388	     10.14186820	    -85.88943615	      0.25584718	      0.91035991	      1.10978535	     40.78014592	     -0.44620501	    -11.39998190	     21.69500980	      0.37864935	     -7.61783591	      0.00000000	      0.00000000	     -8.03187687	     -3.32872188	     -0.06847158	     28.08821507	      0.49023183	    -15.90817933	      0.00000000	      0.00000000	      3.49658958	      4.42709752	     -3.86468475	      0.00000000	      0.00000000	      0.00000000	      0.00000000	      0.00000000	      0.00000000	      0.00000000	      0.00000000	      0.00000000	      0.00000000	      0.00000000	      0.00000000	      0.00000000	      0.00000000
      1.09000000	     -3.35943877	      9.97285318	    -86.21896694	      0.25351865	      0.91312633	      1.13174153	     40.05026920	      0.58303405	    -11.20501950	     23.16363105	      0.40428163	     -7.62706665	      0.00000000	      0.00000000	     -6.28760442	     -4.43096292	     -0.59729276	     32.43473331	      0.56609289	    -20.25655301	      0.00000000	      0.00000000	      3.42313614	      5.32552770	     -3.24613889	      0.00000000	      0.00000000	      0.00000000	      0.00000000	      0.00000000	      0.00000000	      0.00000000	      0.00000000	      0.00000000	      0.00000000	      0.00000000	      0.00000000	      0.00000000	      0.00000000
      1.10000000	     -4.05015339	      9.72175547	    -86.59503509	      0.25116815	      0.91647582	      1.15333768	     39.04430930	      1.60380267	    -11.04172017	     24.32735476	      0.42459244	     -7.09591725	      0.00000000	      0.00000000	     -4.40586205	     -5.42334548	     -0.90519542	     36.91738940	      0.64433000	    -23.92884643	      0.00000000	      0.00000000	      3.20065214	      6.14039669	     -2.54248990	      0.00000000	      0.00000000	      0.00000000	      0.00000000	      0.00000000	      0.00000000	      0.00000000	      0.00000000	      0.00000000	      0.00000000	      0.00000000	      0.00000000	      0.00000000	      0.00000000
      1.11000000	     -4.66447411	      9.47500372	    -86.99108646	      0.24877616	      0.92024258	      1.17451208	     37.80125386	      2.61980404	    -10.81585374	     25.05958283	      0.43737223	     -6.22481506	      0.00000000	      0.00000000	     -2.33269672	     -6.27013999	     -0.98547026	     41.41304825	      0.72279405	    -26.60767976	      0.00000000	      0.00000000	      2.92456545	      6.83385336	     -1.80079667	      0.00000000	      0.00000000	      0.00000000	      0.00000000	      0.00000000	      0.00000000	      0.00000000	      0.00000000	      0.00000000	      0.00000000	      0.00000000	      0.00000000	      0.00000000	      0.00000000
      1.12000000	     -5.18073869	      9.31327315	    -87.37672934	      0.24637863	      0.92427087	      1.19520298	     36.41473165	      3.59367090	    -10.51235629	     25.33760289	      0.44222459	     -5.20888297	      0.00000000	      0.00000000	     -0.00588242	     -6.94803625	     -0.88956547	     45.80313110	      0.79941545	    -27.98000554	      0.00000000	      0.00000000	      2.68161976	      7.38613733	     -1.17226169	      0.00000000	      0.00000000	      0.00000000	      0.00000000	      0.00000000	      0.00000000	      0.00000000	      0.00000000	      0.00000000	      0.00000000	      0.00000000	      0.00000000	      0.00000000	      0.00000000
      1.13000000	     -5.59581781	      9.24944467	    -87.64863415	      0.24419124	      0.92836555	      1.21555517	     34.92376736	      4.43532038	    -10.20604322	     25.24509077	      0.44060995	     -4.17896551	      0.00000000	      0.00000000	      2.58602960	     -7.49618148	     -0.70285802	     50.02832575	      0.87315900	    -27.97566626	      0.00000000	      0.00000000	      2.57111055	      7.77553873	     -0.60399296	      0.00000000	      0.00000000	      0.00000000	      0.00000000	      0.00000000	      0.00000000	      0.00000000	      0.00000000	      0.00000000	      0.00000000	      0.00000000	      0.00000000	      0.00000000	      0.00000000
      1.14000000	     -5.86379800	      9.16154600	    -87.91309038	      0.24206081	      0.93274438	      1.23558705	     33.23135149	      5.15272645	     -9.87995647	     24.82266132	      0.43323717	     -3.11793491	      0.00000000	      0.00000000	      5.17338056	     -7.83369955	     -0.49185494	     53.77924236	      0.93862485	    -26.84903703	      0.00000000	      0.00000000	      2.38586537	      7.97257000	     -0.01744110	      0.00000000	      0.00000000	      0.00000000	      0.00000000	      0.00000000	      0.00000000	      0.00000000	      0.00000000	      0.00000000	      0.00000000	      0.00000000	      0.00000000	      0.00000000	      0.00000000
      1.15000000	     -5.95437162	      9.08199371	    -88.09813291	      0.24012008	      0.93732377	      1.25539786	     31.37170485	      5.68023572	     -9.46555748	     24.07043282	      0.42010831	     -2.05680352	      0.00000000	      0.00000000	      7.78207042	     -7.92820841	     -0.24432906	     56.98171320	      0.99451851	    -24.71307706	      0.00000000	      0.00000000	      2.19115313	      7.93782854	      0.54705804	      0.00000000	      0.00000000	      0.00000000	      0.00000000	      0.00000000	      0.00000000	      0.00000000	      0.00000000	      0.00000000	      0.00000000	      0.00000000	      0.00000000	      0.00000000	      0.00000000
      1.16000000	     -5.91669247	      9.13600945	    -88.21595511	      0.23832331	      0.94173811	      1.27505853	     29.57335873	      6.03432391	     -9.07293206	     23.16150260	      0.40424448	     -1.23486492	      0.00000000	      0.00000000	     10.52507496	     -7.85056331	     -0.03497832	     59.61348179	      1.04045154	    -21.79109947	      0.00000000	      0.00000000	      2.17494737	      7.73937825	      0.89832272	      0.00000000	      0.00000000	      0.00000000	      0.00000000	      0.00000000	      0.00000000	      0.00000000	      0.00000000	      0.00000000	      0.00000000	      0.00000000	      0.00000000	      0.00000000	      0.00000000
      1.17000000	     -5.73522850	      9.26339963	    -88.23603063	      0.23677287	      0.94604102	      1.29451752	     27.75938978	      6.18155289	     -8.68802811	     22.04577074	      0.38477129	     -0.49318361	      0.00000000	      0.00000000	     13.32676345	     -7.56440910	      0.15766961	     61.63923346	      1.07580757	    -18.51637667	      0.00000000	      0.00000000	      2.22667974	      7.34711044	      1.19531538	     -0.00000000	     -0.00000000	      0.00000000	      0.00000000	      0.00000000	      0.00000000	      0.00000000	      0.00000000	     -0.00000000	     -0.00000000	      0.00000000	      0.00000000	      0.00000000	      0.00000000
      1.18000000	     -5.49735612	      9.49679406	    -88.20598408	      0.23533707	      0.95006027	      1.31388470	     26.01352651	      6.22971514	     -8.34429329	     20.81804595	      0.36334345	      0.13029363	      0.00000000	      0.00000000	     16.17990437	     -7.18076391	      0.29410751	     63.02922010	      1.10006742	    -14.95920197	      0.00000000	      0.00000000	      2.41394977	      6.87745354	      1.39276296	      0.00000000	      0.00000000	      0.00000000	      0.00000000	      0.00000000	      0.00000000	      0.00000000	      0.00000000	      0.00000000	      0.00000000	      0.00000000	      0.00000000	      0.00000000	      0.00000000
      1.19000000	     -5.15184439	      9.79295268	    -88.10557079	      0.23411634	      0.95383290	      1.33325947	     24.27044857	      6.11590996	     -8.05971802	     19.45751472	      0.33959770	      0.66188134	      0.00000000	      0.00000000	     18.98462595	     -6.61776729	      0.40818540	     63.73006609	      1.11229949	    -11.64111670	      0.00000000	      0.00000000	      2.68659253	      6.27868608	      1.51129147	      0.00000000	      0.00000000	      0.00000000	      0.00000000	      0.00000000	      0.00000000	      0.00000000	      0.00000000	      0.00000000	      0.00000000	      0.00000000	      0.00000000	      0.00000000	      0.00000000
      1.20000000	     -4.77193463	     10.15329231	    -87.97337154	      0.23301562	      0.95722228	      1.35263691	     22.56058306	      5.92918301	     -7.83892588	     17.99906837	      0.31414301	      1.09827187	      0.00000000	      0.00000000	     21.72588177	     -5.98307950	      0.44981908	     63.79429596	      1.11342051	     -8.59788105	      0.00000000	      0.00000000	      3.03491437	      5.63298609	      1.59834169	      0.00000000	      0.00000000	      0.00000000	      0.00000000	      0.00000000	      0.00000000	      0.00000000	      0.00000000	      0.00000000	      0.00000000	      0.00000000	      0.00000000	      0.00000000	      0.00000000
